<?xml version="1.0" encoding="UTF-8" standalone="no"?>
<!-- Created with Inkscape (http://www.inkscape.org/) -->

<svg
   width="83.082069mm"
   height="109.63895mm"
   viewBox="0 0 83.082069 109.63894"
   version="1.1"
   id="svg5"
   inkscape:export-filename="C:\Users\Dennys\Desktop\logo_kvx_1.png"
   inkscape:export-xdpi="96"
   inkscape:export-ydpi="96"
   inkscape:version="1.1.1 (3bf5ae0d25, 2021-09-20)"
   sodipodi:docname="logo.svg"
   xmlns:inkscape="http://www.inkscape.org/namespaces/inkscape"
   xmlns:sodipodi="http://sodipodi.sourceforge.net/DTD/sodipodi-0.dtd"
   xmlns="http://www.w3.org/2000/svg"
   xmlns:svg="http://www.w3.org/2000/svg">
  <sodipodi:namedview
     id="namedview7"
     pagecolor="#ffffff"
     bordercolor="#666666"
     borderopacity="1.0"
     inkscape:pageshadow="2"
     inkscape:pageopacity="0.0"
     inkscape:pagecheckerboard="0"
     inkscape:document-units="mm"
     showgrid="false"
     fit-margin-top="0"
     fit-margin-left="0"
     fit-margin-right="0"
     fit-margin-bottom="0"
     inkscape:zoom="1.0998546"
     inkscape:cx="550.07271"
     inkscape:cy="495.52004"
     inkscape:window-width="3840"
     inkscape:window-height="2080"
     inkscape:window-x="-11"
     inkscape:window-y="-11"
     inkscape:window-maximized="1"
     inkscape:current-layer="layer1" />
  <defs
     id="defs2">
    <clipPath
       clipPathUnits="userSpaceOnUse"
       id="clipPath13342">
      <rect
         style="fill:none;stroke:#ff0000;stroke-width:0.264583"
         id="rect13344"
         width="21.518042"
         height="20.837629"
         x="328.6817"
         y="-132.80798"
         rx="24.00001"
         ry="0.042525683" />
    </clipPath>
  </defs>
  <g
     inkscape:label="Capa 1"
     inkscape:groupmode="layer"
     id="layer1"
     transform="translate(-298.38634,-130.69381)">
    <g
       id="g831">
      <g
         id="g1360">
        <path
           style="fill:#5cfe01;stroke-width:0.176389"
           d="m 336.22466,155.05941 c -9.3839,-1.56715 -16.76362,-8.26614 -19.05443,-17.29678 -0.35789,-1.41084 -0.81297,-4.78926 -0.49896,-3.70416 0.46533,1.60798 1.28036,3.76537 1.86584,4.93889 3.54378,7.10304 10.22567,11.93969 18.04033,13.05839 5.12823,0.73413 10.55166,-0.35291 15.12683,-3.03192 5.39674,-3.16007 9.32289,-8.32755 11.0689,-14.56854 l 0.35775,-1.27876 -0.10238,1.14652 c -0.47239,5.29026 -3.05515,10.58732 -7.03615,14.43068 -3.1733,3.06357 -7.10754,5.1451 -11.56565,6.11914 -1.79001,0.39109 -6.3555,0.49493 -8.20208,0.18654 z"
           id="path860" />
        <path
           style="fill:#010101;stroke-width:0.176389"
           d="m 313.55869,239.90352 c 2.57112,-0.61439 4.57535,-1.2652 7.34152,-2.38393 l 2.52777,-1.02232 0.33887,0.90351 c 0.18638,0.49693 0.54111,1.35992 0.78829,1.91775 l 0.44941,1.01423 -6.56078,-0.0144 -6.56078,-0.0144 1.6757,-0.40042 z m 41.45138,0.34443 c 0,-0.0723 1.42272,-3.62218 1.50452,-3.75395 0.0158,-0.0255 0.61646,0.22098 1.33472,0.54779 1.97395,0.89818 5.2709,2.02676 7.83229,2.68109 l 2.29306,0.58577 -6.48229,0.0121 c -3.56526,0.007 -6.4823,-0.0261 -6.4823,-0.0728 z m -52.59167,-0.6868 c -1.22132,-0.50235 -2.33098,-1.15122 -3.13991,-1.83606 l -0.61006,-0.51647 0.78644,-1.15891 0.78645,-1.1589 0.61737,0.63353 c 0.61633,0.63249 2.56234,1.9862 2.85523,1.9862 0.0851,0 0.433,0.11628 0.77314,0.2584 l 0.61844,0.2584 -0.35555,0.66764 c -0.4904,0.92089 -0.80047,1.28574 -1.08849,1.28082 -0.13482,-0.002 -0.6942,-0.1889 -1.24306,-0.41465 z m 73.00869,-0.31164 c -0.26679,-0.41319 -0.48507,-0.87467 -0.48507,-1.02552 0,-0.17213 0.39542,-0.4276 1.0618,-0.686 1.15706,-0.44866 3.0299,-1.76398 3.47166,-2.4382 l 0.27755,-0.42359 0.79671,1.18762 0.79671,1.18762 -0.84175,0.76208 c -0.90135,0.81605 -2.9641,1.89317 -3.97518,2.07576 -0.57892,0.10454 -0.64757,0.0647 -1.10243,-0.63977 z M 325.67115,237.548 c -0.35976,-0.84522 -0.65255,-1.62393 -0.65065,-1.73046 0.002,-0.10653 0.32705,-0.33962 0.72255,-0.51796 0.3955,-0.17835 1.62996,-0.8178 2.74325,-1.42102 1.78852,-0.96907 1.98875,-1.04224 1.71998,-0.62856 -0.16731,0.2575 -1.10898,1.67566 -2.0926,3.15147 l -1.78842,2.6833 z m 26.25212,-1.22087 c -0.87313,-1.31791 -1.74021,-2.63215 -1.92685,-2.92054 l -0.33936,-0.52433 0.95672,0.55894 c 0.52619,0.30741 1.72818,0.9514 2.67108,1.43108 l 1.71437,0.87215 -0.61194,1.45096 c -0.33657,0.79803 -0.61194,1.47322 -0.61194,1.50042 0,0.30648 -0.52237,-0.3616 -1.85208,-2.36868 z m -45.15556,1.81285 c -0.097,-0.0393 -0.45677,-0.11793 -0.79947,-0.17481 l -0.62308,-0.10344 0.0656,-1.18983 c 0.0498,-0.90331 -0.0245,-1.42969 -0.30884,-2.18592 -0.39722,-1.05656 -1.43496,-2.37891 -2.17966,-2.77746 l -0.44835,-0.23996 4.92605,-7.38595 c 2.70933,-4.06228 5.0248,-7.3871 5.14549,-7.3885 0.4383,-0.005 5.52171,0.91639 5.90799,1.07093 0.25902,0.10362 0.39687,0.30754 0.39687,0.5871 0,1.52735 2.04651,10.52247 3.25633,14.31267 0.33975,1.06442 0.6192,1.99767 0.62098,2.07387 0.008,0.35685 -5.24826,2.19096 -8.23107,2.87194 -1.65791,0.37851 -2.64388,0.48866 -4.81846,0.53832 -1.50372,0.0343 -2.8134,0.0303 -2.91042,-0.009 z m 59.88403,-0.2714 c -1.01865,-0.18676 -2.65772,-0.58022 -3.64238,-0.87437 -1.71585,-0.51257 -5.20968,-1.80506 -5.65427,-2.09171 -0.15876,-0.10236 -0.0579,-0.62721 0.39831,-2.07181 1.16964,-3.70408 2.55688,-9.69641 3.33662,-14.41282 0.0816,-0.49363 0.20723,-0.67972 0.49827,-0.73811 0.21403,-0.0429 1.54008,-0.28497 2.94678,-0.53787 1.40671,-0.25289 2.68604,-0.49823 2.84297,-0.54519 0.21439,-0.0642 1.51862,1.76335 5.24577,7.35046 l 4.96044,7.43586 -0.78438,0.49744 c -1.53507,0.97351 -2.56257,3.23818 -2.31522,5.10285 0.14136,1.06556 0.13056,1.06931 -3.33499,1.1575 -2.07716,0.0529 -3.04391,-0.006 -4.49792,-0.27223 z m -42.39219,-3.84448 c -0.20189,-0.34289 -1.57972,-4.82097 -2.13198,-6.92908 -0.62883,-2.40045 -1.86247,-8.27091 -1.86482,-8.87409 -10e-4,-0.25156 0.091,-0.30503 0.39559,-0.22988 0.43795,0.10805 6.27918,0.73555 8.52108,0.91538 1.40139,0.11241 1.43743,0.12747 2.55764,1.06864 0.80503,0.67638 1.53285,1.55377 2.497,3.01017 0.74843,1.13054 1.30983,2.14263 1.24756,2.2491 -0.0623,0.10646 -0.73205,1.1503 -1.48841,2.31966 l -1.3752,2.12609 -2.34181,1.34072 c -2.96734,1.69884 -5.91761,3.17151 -6.01665,3.00329 z m 29.06533,-0.98486 c -1.16291,-0.60144 -2.90815,-1.55268 -3.87831,-2.11386 l -1.76393,-1.02034 -1.53976,-2.36297 c -0.84686,-1.29964 -1.53975,-2.4112 -1.53975,-2.47014 0,-0.37724 3.17946,-4.78897 3.85861,-5.3541 l 0.81569,-0.67876 3.35139,-0.30024 c 1.84327,-0.16513 4.17829,-0.41429 5.18894,-0.55369 1.01065,-0.13939 1.85268,-0.23367 1.87119,-0.20951 0.10161,0.13268 -1.0929,5.88282 -1.76187,8.4813 -0.84855,3.29607 -2.13943,7.4605 -2.35361,7.59287 -0.0738,0.0456 -1.08569,-0.40913 -2.24859,-1.01056 z m -20.59263,-25.5755 c -3.8515,-5.7656 -7.00273,-10.55603 -7.00273,-10.64542 0,-0.14522 13.15634,-19.93955 14.02291,-21.09814 l 0.35278,-0.47165 7.20925,10.77777 7.20926,10.77777 -7.03287,10.51955 c -5.05678,7.56379 -7.13443,10.53409 -7.39436,10.57129 -0.2998,0.0429 -1.55679,-1.73758 -7.36424,-10.43117 z m 9.80698,-2.93981 c 2.05229,-0.63388 4.07583,-2.43238 5.06432,-4.50108 2.26911,-4.74881 -0.44011,-10.47253 -5.59216,-11.81447 -4.32654,-1.12693 -8.81053,1.43671 -10.1383,5.7964 -0.30067,0.98725 -0.35286,1.5207 -0.28474,2.91041 0.0724,1.47702 0.1657,1.87921 0.70692,3.04728 1.01233,2.1848 3.00498,3.92669 5.3405,4.66845 1.12555,0.35747 3.57259,0.30408 4.90346,-0.10699 z m -16.19235,12.68105 c -2.21504,-0.23717 -5.79157,-0.69959 -6.10887,-0.78984 -0.20747,-0.059 -0.34069,-0.4381 -0.47632,-1.35542 -0.28158,-1.90441 -0.77003,-6.79284 -0.70423,-7.04792 0.0316,-0.12253 2.21096,1.94018 4.84301,4.58381 3.96367,3.98113 4.70584,4.80264 4.32153,4.78353 -0.25521,-0.0127 -1.09901,-0.0911 -1.87512,-0.17416 z m 29.7081,-4.69756 c 2.67527,-2.69214 4.88052,-4.89162 4.90057,-4.88774 0.13967,0.027 -0.91712,8.51713 -1.08048,8.6805 -0.14797,0.14796 -1.66283,0.36291 -5.27189,0.74804 -1.82452,0.19469 -3.33869,0.35399 -3.36482,0.35399 -0.0261,0 2.14135,-2.20266 4.81662,-4.89479 z m -30.99032,-0.70556 c -2.50354,-2.49811 -4.77319,-4.83519 -5.04366,-5.19351 l -0.49177,-0.6515 0.71804,-1.05735 c 0.39492,-0.58155 0.79107,-1.10249 0.88033,-1.15766 0.0893,-0.0552 2.01786,2.6585 4.28577,6.03038 4.65437,6.92001 4.42651,6.57165 4.29855,6.57165 -0.0525,0 -2.14371,-2.0439 -4.64726,-4.54201 z m -9.30111,3.88666 c -1.26118,-0.24737 -2.31831,-0.4711 -2.34917,-0.49718 -0.0309,-0.0261 0.89831,-1.45214 2.06484,-3.169 1.75331,-2.58049 2.13547,-3.04978 2.20469,-2.70732 0.0461,0.22785 0.20933,1.62011 0.36285,3.09392 0.15352,1.4738 0.32768,2.9224 0.38702,3.21909 0.12949,0.64745 0.3023,0.64353 -2.67023,0.0605 z m 45.67183,0.0977 c 0.14162,-0.65003 0.42202,-2.87545 0.64093,-5.08679 0.11044,-1.11566 0.22023,-2.04919 0.24398,-2.0745 0.0238,-0.0253 1.0204,1.42415 2.21478,3.22103 1.19439,1.79688 2.1394,3.29547 2.10004,3.33021 -0.0394,0.0347 -1.02406,0.23586 -2.18823,0.44693 -1.16417,0.21108 -2.33822,0.42694 -2.60902,0.4797 -0.44239,0.0862 -0.48323,0.0541 -0.40248,-0.31658 z m -6.68221,-6.09887 c 2.22709,-3.32154 4.0973,-6.04013 4.156,-6.04132 0.14441,-0.003 1.56896,2.03921 1.56896,2.24915 0,0.22153 -7.68941,8.09225 -8.85897,9.06785 -0.84878,0.70802 -0.62112,0.32479 3.13401,-5.27568 z m -34.56126,-21.05582 -0.97203,-1.45186 1.23071,-1.3652 c 2.62504,-2.91191 10.96176,-11.0366 10.48304,-10.21643 -0.28242,0.48384 -9.13317,13.66311 -9.45415,14.07775 l -0.31554,0.40761 z m 37.0716,-0.98237 c -3.86368,-5.64413 -7.744,-11.58519 -7.35261,-11.25737 1.62651,1.36232 5.44765,5.08484 7.94545,7.74038 l 2.9669,3.15426 -0.27382,0.46171 c -0.1506,0.25394 -0.57605,0.88409 -0.94544,1.40033 l -0.67161,0.93862 z m -1.22427,-7.33046 c -4.22994,-4.25384 -4.8055,-4.89553 -4.32153,-4.81804 0.30709,0.0492 1.47115,0.1763 2.58681,0.28253 1.96185,0.18679 5.49209,0.66203 5.58143,0.75137 0.13862,0.13862 1.17955,8.6533 1.06164,8.68412 -0.0157,0.004 -2.22443,-2.2009 -4.90835,-4.89998 z m -37.0125,4.35408 c 0,-0.85729 0.83515,-7.99292 0.9526,-8.13908 0.1037,-0.12906 8.622,-1.16251 8.67406,-1.05235 0.007,0.0157 -2.15557,2.19041 -4.8066,4.83275 -4.00442,3.99129 -4.82006,4.72886 -4.82006,4.35868 z m 43.04828,-2.4116 c -0.12565,-1.3849 -0.32908,-3.19269 -0.45206,-4.01731 -0.12298,-0.82461 -0.2126,-1.51231 -0.19915,-1.5282 0.0135,-0.0159 1.32068,0.22223 2.90495,0.52917 l 2.8805,0.55806 -2.30679,3.43944 c -1.26874,1.89169 -2.37254,3.46135 -2.45289,3.48813 -0.0804,0.0268 -0.2489,-1.0844 -0.37456,-2.46929 z m -46.82844,-0.99938 c -1.25447,-1.85114 -2.23767,-3.40889 -2.18488,-3.46168 0.13811,-0.13811 4.37012,-0.95833 4.96993,-0.96323 0.43515,-0.004 0.49072,0.0502 0.40584,0.39275 -0.0541,0.21828 -0.22568,1.5875 -0.3813,3.04271 -0.15562,1.4552 -0.33825,3.03043 -0.40584,3.50049 l -0.12289,0.85466 z m 51.31697,-5.15443 c -0.77612,-0.17108 -2.30015,-0.45422 -3.38674,-0.62919 l -1.97562,-0.31812 -0.19875,-1.23622 c -0.35036,-2.17934 -1.22919,-6.45703 -1.77523,-8.64098 -0.43944,-1.75759 -1.76368,-6.34044 -2.0474,-7.0855 -0.16551,-0.43466 6.17377,-2.5757 9.38374,-3.16928 1.85661,-0.34333 5.67648,-0.44793 7.14375,-0.19564 l 0.79375,0.13649 0.007,1.45101 c 0.0112,2.18814 0.89148,3.78797 2.65186,4.81962 l 0.75884,0.44471 -0.93415,1.44473 c -1.95077,3.01702 -8.60427,12.91834 -8.80277,13.09973 -0.14897,0.13613 -0.60617,0.10186 -1.61872,-0.12136 z m -59.57245,-7.16942 -4.8919,-7.356 0.48217,-0.24416 c 0.78306,-0.39651 1.80202,-1.463 2.30118,-2.4085 0.39805,-0.75398 0.46621,-1.10371 0.46983,-2.41042 l 0.004,-1.52848 1.39293,-0.21691 c 2.69707,-0.41999 6.93284,0.0854 10.67876,1.27403 1.93313,0.61343 5.30261,1.89797 5.30261,2.0215 0,0.0457 -0.32316,1.1311 -0.71813,2.41197 -0.97623,3.16593 -2.17006,8.12515 -2.72616,11.3247 -0.25293,1.45521 -0.49576,2.82443 -0.53962,3.04271 -0.0551,0.27438 -0.20585,0.39687 -0.48831,0.39687 -0.2247,0 -1.63209,0.23751 -3.12754,0.52781 -1.49544,0.29029 -2.83806,0.52624 -2.98358,0.52434 -0.15094,-0.002 -2.36561,-3.16279 -5.15647,-7.35946 z m 13.27165,5.6684 c 0.002,-0.61 1.23695,-6.4787 1.85408,-8.81348 0.93531,-3.53858 2.01616,-6.78299 2.29539,-6.89014 0.23856,-0.0915 3.53853,1.55842 6.1337,3.06682 1.28791,0.74857 1.3465,0.8201 3.76832,4.60078 l 1.27898,1.99659 -0.65442,1.06317 c -0.4326,0.7028 -1.26925,1.59889 -2.46826,2.64364 l -1.81385,1.58047 -2.1549,0.17224 c -2.33393,0.18655 -6.41169,0.61872 -7.53924,0.79902 -0.60834,0.0973 -0.70092,0.0683 -0.6998,-0.21911 z m 37.72354,0.10672 c -0.44889,-0.0758 -2.27451,-0.26975 -4.05695,-0.43088 -1.78244,-0.16114 -3.57073,-0.33162 -3.97399,-0.37885 -0.59571,-0.0698 -1.00503,-0.32116 -2.18285,-1.34063 -1.49835,-1.2969 -3.27039,-3.67895 -3.08882,-4.1521 0.0514,-0.13384 0.94313,-1.5388 1.98172,-3.12212 l 1.88834,-2.87878 1.94935,-1.06285 c 2.4391,-1.32987 4.79754,-2.50576 5.02573,-2.50576 0.52188,0 3.11681,9.82608 4.11083,15.56632 0.0942,0.54423 -0.0661,0.57388 -1.65336,0.30565 z m -29.61094,-15.78714 c -0.7276,-0.42112 -1.77932,-0.98427 -2.33715,-1.25144 -0.61658,-0.29531 -1.00954,-0.59407 -1.00226,-0.76201 0.007,-0.15193 0.26455,-0.80934 0.57326,-1.46089 l 0.56129,-1.18465 1.80854,2.72805 c 0.9947,1.50043 1.78845,2.72098 1.76389,2.71234 -0.0246,-0.009 -0.63996,-0.36027 -1.36757,-0.7814 z m 22.26906,0.34329 c 0.0569,-0.0899 0.81064,-1.21121 1.67493,-2.49169 l 1.57143,-2.32815 0.54887,1.31496 0.54887,1.31496 -0.56248,0.28604 c -0.30937,0.15733 -1.31008,0.68686 -2.2238,1.17673 -0.91373,0.48988 -1.61474,0.81709 -1.55782,0.72715 z m 29.2365,-0.9248 c 0,-0.26598 -1.66828,-1.82336 -2.44166,-2.27935 -0.42129,-0.24839 -1.1919,-0.62473 -1.71249,-0.83631 l -0.94652,-0.38469 0.36391,-0.73552 0.3639,-0.73551 h 1.13396 c 0.85012,0 1.34495,0.10692 1.97691,0.42716 1.14305,0.57922 2.84949,1.99292 2.84949,2.36066 0,0.16445 -0.32378,0.7554 -0.71951,1.31322 -0.70629,0.99561 -0.86799,1.15775 -0.86799,0.87034 z m -80.78099,-1.25967 -0.71358,-1.0508 0.82983,-0.79517 c 1.32103,-1.26585 2.60739,-1.86574 4.00077,-1.86574 h 1.16235 l 0.35637,0.69853 c 0.40948,0.80265 0.42583,0.88897 0.16841,0.88897 -0.61338,0 -2.92802,1.32168 -3.84291,2.19434 -0.56546,0.53936 -1.07752,0.98066 -1.13789,0.98066 -0.0604,0 -0.43088,-0.47286 -0.82335,-1.05079 z m 22.48446,-1.44913 c -0.87313,-0.38753 -2.61938,-1.0526 -3.88056,-1.47793 l -2.29305,-0.77333 4.54201,-0.006 c 2.49811,-0.003 4.54244,0.0539 4.54297,0.12663 0.002,0.26694 -1.10252,2.86582 -1.2114,2.8506 -0.0619,-0.009 -0.82685,-0.33278 -1.69997,-0.72031 z m 34.39357,-0.61449 c -0.2898,-0.74588 -0.55336,-1.42184 -0.5857,-1.50212 -0.0323,-0.0803 1.99172,-0.14177 4.49792,-0.13664 l 4.55671,0.009 -2.20486,0.75684 c -1.21268,0.41626 -2.91924,1.05604 -3.79236,1.42174 -0.87313,0.36569 -1.66789,0.69687 -1.76615,0.73596 -0.0983,0.0391 -0.41576,-0.53922 -0.70556,-1.2851 z"
           id="path856" />
      </g>
      <path
         style="fill:#80b3ff;fill-opacity:1;stroke:none;stroke-width:0.0150351"
         d="m 337.97575,145.18805 c -0.0414,-0.0109 -0.14218,-0.0408 -0.22407,-0.0663 -0.10269,-0.032 -0.21699,-0.0534 -0.36835,-0.0691 -0.26423,-0.0273 -0.32507,-0.0406 -0.36773,-0.0807 -0.0466,-0.0438 -0.12374,-0.0726 -0.22762,-0.085 -0.22836,-0.0274 -0.28813,-0.0454 -0.33776,-0.10197 -0.0511,-0.0583 -0.0985,-0.0779 -0.22607,-0.0938 -0.094,-0.0117 -0.15793,-0.0399 -0.17874,-0.0789 -0.0154,-0.0286 -0.13333,-0.0933 -0.17021,-0.0933 -0.0531,0 -0.11954,-0.0363 -0.1404,-0.0766 -0.0267,-0.0516 -0.0901,-0.0872 -0.20227,-0.11337 -0.0457,-0.0107 -0.0894,-0.0308 -0.0977,-0.045 -0.0345,-0.0589 -0.0945,-0.10847 -0.15941,-0.13188 -0.0429,-0.0155 -0.0753,-0.0384 -0.0853,-0.0604 -0.0183,-0.0402 -0.15616,-0.12438 -0.22693,-0.13853 -0.0259,-0.005 -0.047,-0.0183 -0.047,-0.0293 0,-0.0358 -0.0665,-0.0957 -0.12768,-0.11523 -0.0458,-0.0146 -0.0673,-0.0332 -0.0909,-0.0786 -0.0196,-0.0376 -0.0527,-0.0708 -0.0902,-0.0903 -0.0369,-0.0192 -0.0687,-0.0507 -0.0841,-0.0834 -0.0148,-0.0316 -0.0506,-0.0678 -0.0896,-0.0907 -0.0382,-0.0224 -0.0776,-0.062 -0.0957,-0.096 -0.0188,-0.0351 -0.0514,-0.0674 -0.0833,-0.0822 -0.0331,-0.0154 -0.064,-0.0466 -0.0835,-0.0844 -0.0196,-0.038 -0.0528,-0.0714 -0.0902,-0.0911 -0.0448,-0.0235 -0.0651,-0.047 -0.0834,-0.0966 -0.0241,-0.065 -0.0749,-0.12045 -0.11054,-0.12045 -0.0101,0 -0.0271,-0.0288 -0.0376,-0.0639 -0.0272,-0.0912 -0.0895,-0.19168 -0.13033,-0.21029 -0.0212,-0.01 -0.045,-0.043 -0.0605,-0.0851 -0.0321,-0.0869 -0.0442,-0.10244 -0.11409,-0.14659 -0.0311,-0.0197 -0.0568,-0.0475 -0.0569,-0.0619 0,-0.0476 -0.0596,-0.15769 -0.10998,-0.20521 -0.0492,-0.0464 -0.0851,-0.12152 -0.0851,-0.17797 0,-0.047 -0.0452,-0.12924 -0.0988,-0.17979 -0.0396,-0.0374 -0.0546,-0.0691 -0.0743,-0.15774 -0.0198,-0.0897 -0.0355,-0.12234 -0.0812,-0.17034 -0.0637,-0.067 -0.0916,-0.11944 -0.0916,-0.17247 0,-0.103 -0.0345,-0.19612 -0.0935,-0.25265 l -0.0597,-0.0572 -0.0212,-0.1834 c -0.0259,-0.22485 -0.0533,-0.32312 -0.10514,-0.37907 -0.0504,-0.0543 -0.0662,-0.10983 -0.0662,-0.23272 -3e-5,-0.13408 -0.0415,-0.47969 -0.0681,-0.56728 -0.0119,-0.0395 -0.022,-0.11324 -0.022,-0.16386 -10e-5,-0.0554 -0.0143,-0.13618 -0.036,-0.20298 -0.0514,-0.15925 -0.0567,-0.23819 -0.0402,-0.59205 0.0116,-0.24982 0.0206,-0.33143 0.0437,-0.39091 0.0412,-0.10702 0.0883,-0.41111 0.10721,-0.69162 0.0193,-0.28646 0.0297,-0.33782 0.0812,-0.39903 0.0431,-0.0512 0.0774,-0.15784 0.0918,-0.28506 0.0196,-0.17397 0.038,-0.23727 0.0759,-0.26207 0.0493,-0.0323 0.0742,-0.0848 0.11149,-0.23458 0.0172,-0.0696 0.0414,-0.132 0.0534,-0.13875 0.0389,-0.0218 0.0927,-0.13557 0.12801,-0.27119 0.023,-0.0883 0.0437,-0.1372 0.0622,-0.14709 0.0404,-0.0216 0.0809,-0.11062 0.10981,-0.24106 0.0206,-0.0938 0.0333,-0.12036 0.0694,-0.14708 0.0243,-0.0179 0.0673,-0.0781 0.0957,-0.13361 0.0284,-0.0555 0.0759,-0.12787 0.10573,-0.16073 0.0322,-0.0355 0.0636,-0.0922 0.0774,-0.13977 0.018,-0.0615 0.0351,-0.0877 0.0745,-0.11316 0.0324,-0.021 0.068,-0.0667 0.097,-0.12468 0.0251,-0.0504 0.0691,-0.11414 0.0976,-0.14175 0.0285,-0.0276 0.0592,-0.0744 0.0682,-0.10392 0.0339,-0.11075 0.0496,-0.1384 0.0913,-0.15991 0.0236,-0.0121 0.0539,-0.0438 0.0676,-0.0703 0.0138,-0.0265 0.0595,-0.0829 0.10175,-0.12528 0.10729,-0.10767 0.25998,-0.27738 0.28991,-0.3222 0.0138,-0.0207 0.0579,-0.0728 0.098,-0.11589 0.0407,-0.0437 0.077,-0.099 0.0822,-0.12518 0.007,-0.0329 0.0271,-0.058 0.0687,-0.0843 0.039,-0.0246 0.0695,-0.0605 0.089,-0.10459 0.0233,-0.0524 0.0426,-0.0723 0.0885,-0.0907 0.0444,-0.0178 0.0654,-0.0384 0.0855,-0.0843 0.0204,-0.0463 0.0419,-0.0673 0.0899,-0.0879 0.0404,-0.0174 0.0764,-0.048 0.0999,-0.0852 0.0275,-0.0436 0.0531,-0.063 0.10219,-0.0777 0.0883,-0.0264 0.12912,-0.0576 0.29753,-0.22709 0.0791,-0.0797 0.16429,-0.15665 0.18921,-0.1711 0.0249,-0.0145 0.0604,-0.0493 0.0788,-0.0774 0.0185,-0.0281 0.0605,-0.0649 0.0935,-0.0817 0.033,-0.0168 0.0719,-0.0491 0.0864,-0.0718 0.0325,-0.0508 0.0648,-0.0776 0.0944,-0.0784 0.0638,-0.002 0.14401,-0.0391 0.21119,-0.0987 0.0412,-0.0366 0.0935,-0.0711 0.11607,-0.0765 0.0777,-0.0186 0.12621,-0.0528 0.14764,-0.10409 0.0148,-0.0357 0.034,-0.054 0.0627,-0.0602 0.10301,-0.022 0.18106,-0.0616 0.23937,-0.12154 0.0345,-0.0355 0.0819,-0.0688 0.10525,-0.074 0.0873,-0.0195 0.10094,-0.0265 0.16336,-0.0841 0.0531,-0.0489 0.0827,-0.0627 0.17449,-0.0811 0.0608,-0.0122 0.12692,-0.026 0.14695,-0.0305 0.0201,-0.005 0.0657,-0.038 0.10152,-0.0743 0.0456,-0.0463 0.082,-0.0688 0.12147,-0.0753 0.12028,-0.0198 0.25604,-0.0683 0.29686,-0.10614 0.0318,-0.0294 0.0738,-0.0453 0.1642,-0.062 0.22622,-0.0418 0.31235,-0.068 0.36031,-0.10945 0.061,-0.0527 0.0862,-0.0589 0.30999,-0.0753 0.21868,-0.016 0.327,-0.0446 0.39494,-0.10428 0.0732,-0.0643 0.18818,-0.0751 0.95089,-0.0892 0.64413,-0.0119 0.68003,-0.0141 0.74425,-0.0444 0.0371,-0.0175 0.0866,-0.0473 0.10993,-0.0662 0.0383,-0.031 0.0582,-0.0343 0.20365,-0.0343 0.13695,2e-5 0.16761,0.005 0.20376,0.0301 0.11348,0.0802 0.12006,0.0825 0.2342,0.0831 0.062,2.7e-4 0.18045,0.007 0.26313,0.0149 0.0827,0.008 0.22477,0.0184 0.31573,0.0234 0.20264,0.0112 0.24778,0.0241 0.31374,0.0901 0.0408,0.0408 0.0638,0.0517 0.10951,0.0519 0.0493,1.9e-4 0.2512,0.0329 0.42143,0.0683 0.0262,0.005 0.0628,0.0259 0.0811,0.0454 0.0372,0.0396 0.16616,0.0851 0.3174,0.11186 0.0733,0.013 0.11358,0.0295 0.14903,0.0612 0.0324,0.0289 0.10102,0.0595 0.20617,0.0918 0.11557,0.0355 0.17113,0.0611 0.20836,0.0963 0.0338,0.0319 0.0946,0.0623 0.182,0.0909 0.0722,0.0237 0.13359,0.0484 0.13645,0.0549 0.0214,0.0487 0.0891,0.10343 0.1456,0.11765 0.0359,0.009 0.0753,0.0276 0.0877,0.0412 0.10232,0.11256 0.094,0.10795 0.27469,0.1525 0.0482,0.0119 0.0664,0.0256 0.0811,0.0612 0.0127,0.0306 0.043,0.058 0.091,0.0824 0.0396,0.0201 0.0902,0.0602 0.11226,0.0892 0.0222,0.029 0.078,0.0743 0.12417,0.10074 0.0462,0.0264 0.11142,0.078 0.14494,0.11465 0.0335,0.0366 0.0897,0.0791 0.12483,0.0944 0.0351,0.0153 0.0639,0.0377 0.0639,0.0497 0,0.033 0.0688,0.10817 0.11742,0.1283 0.0273,0.0113 0.0526,0.0399 0.0698,0.0788 0.0201,0.0459 0.0424,0.0679 0.0895,0.0887 0.0454,0.0201 0.0675,0.0412 0.0805,0.0773 0.01,0.0273 0.0492,0.0799 0.0874,0.11681 0.0382,0.037 0.089,0.10591 0.11288,0.15324 0.0238,0.0473 0.0611,0.0983 0.0826,0.11323 0.0591,0.041 0.0855,0.0735 0.1031,0.12715 0.0111,0.0334 0.0372,0.061 0.0837,0.088 0.057,0.0332 0.0703,0.05 0.0846,0.10701 0.0228,0.0913 0.0573,0.15477 0.10406,0.19154 0.0214,0.0168 0.0516,0.0653 0.0671,0.10774 0.0332,0.0909 0.0508,0.11439 0.10755,0.14374 0.0249,0.0129 0.0459,0.0387 0.0513,0.0629 0.0343,0.15561 0.0573,0.20906 0.11269,0.26177 0.0553,0.0526 0.0592,0.0626 0.0808,0.20671 0.0246,0.1649 0.0476,0.22297 0.10615,0.26904 0.048,0.0377 0.0601,0.0752 0.0912,0.28083 0.0265,0.17495 0.0492,0.23768 0.0951,0.26225 0.0406,0.0217 0.0483,0.0501 0.0619,0.22666 0.007,0.087 0.0206,0.21552 0.0307,0.28566 0.0164,0.11245 0.0243,0.13299 0.0671,0.1736 0.0267,0.0254 0.0532,0.0605 0.0588,0.0782 0.006,0.0177 0.0156,0.29801 0.0222,0.623 0.0143,0.70823 0,1.38269 -0.0334,1.493 -0.0122,0.0413 -0.0432,0.14539 -0.0689,0.23122 -0.0257,0.0858 -0.0466,0.18777 -0.0466,0.22653 0,0.0388 -0.006,0.10723 -0.0135,0.15217 -0.007,0.0449 -0.022,0.13243 -0.032,0.19445 -0.0103,0.0623 -0.0311,0.12882 -0.0466,0.14867 -0.0386,0.0493 -0.0656,0.14711 -0.0963,0.34906 -0.0251,0.1657 -0.0534,0.25403 -0.0813,0.25403 -0.007,0 -0.0269,0.022 -0.0435,0.0489 -0.0295,0.048 -0.0507,0.14363 -0.0701,0.31615 -0.009,0.0767 -0.0175,0.0944 -0.0749,0.15108 -0.0634,0.0625 -0.0817,0.10425 -0.10435,0.23721 -0.006,0.0362 -0.0311,0.0763 -0.0749,0.12076 -0.054,0.0548 -0.0688,0.0825 -0.0834,0.15632 -0.0267,0.13467 -0.029,0.13963 -0.0779,0.16835 -0.0249,0.0146 -0.069,0.0656 -0.098,0.11316 -0.029,0.0476 -0.0651,0.0932 -0.0802,0.10129 -0.0404,0.0216 -0.0841,0.10165 -0.10533,0.1927 -0.0156,0.0675 -0.0276,0.0855 -0.077,0.11673 -0.0368,0.0232 -0.0702,0.0618 -0.09,0.10406 -0.018,0.0381 -0.0527,0.0802 -0.0803,0.0973 -0.0501,0.0309 -0.0847,0.0927 -0.11822,0.21104 -0.0153,0.0546 -0.0296,0.0726 -0.0735,0.0934 -0.0408,0.0193 -0.0607,0.0423 -0.0797,0.0923 -0.0201,0.0528 -0.038,0.0722 -0.0858,0.0938 -0.0437,0.0197 -0.0689,0.0447 -0.0912,0.0907 -0.0222,0.0456 -0.0475,0.071 -0.0902,0.0902 -0.0427,0.0192 -0.0681,0.0446 -0.0901,0.09 -0.0228,0.0466 -0.0457,0.0691 -0.0877,0.0856 -0.0409,0.0161 -0.0646,0.0386 -0.0841,0.08 -0.0182,0.0384 -0.0492,0.0698 -0.0932,0.094 -0.0469,0.0259 -0.0724,0.0527 -0.0881,0.0927 -0.0161,0.0411 -0.0379,0.0635 -0.0808,0.0828 -0.0391,0.0176 -0.0699,0.047 -0.0925,0.088 -0.0272,0.0496 -0.0476,0.0659 -0.10443,0.0841 -0.0388,0.0124 -0.0962,0.0472 -0.12758,0.0774 -0.0314,0.0302 -0.0985,0.0755 -0.14917,0.10079 -0.0548,0.0273 -0.11129,0.0701 -0.13933,0.10549 -0.0365,0.0461 -0.0613,0.0619 -0.10957,0.0701 -0.0438,0.007 -0.0829,0.0296 -0.13131,0.0746 -0.0379,0.0352 -0.11094,0.0852 -0.16232,0.11095 -0.0514,0.0258 -0.1012,0.0621 -0.11075,0.0808 -0.0228,0.0445 -0.0747,0.0858 -0.10843,0.0862 -0.0398,5.3e-4 -0.1333,0.052 -0.17444,0.0961 -0.0341,0.0365 -0.11766,0.0712 -0.22106,0.0918 -0.0257,0.005 -0.0734,0.0351 -0.10628,0.0666 -0.0578,0.0556 -0.0922,0.0717 -0.22646,0.10627 -0.035,0.009 -0.0943,0.043 -0.13189,0.0755 -0.0376,0.0325 -0.0969,0.067 -0.1319,0.0765 -0.14409,0.0393 -0.16555,0.0491 -0.22905,0.10401 -0.069,0.0597 -0.0821,0.0644 -0.25551,0.0904 -0.14203,0.0213 -0.23736,0.0541 -0.28448,0.0977 -0.0428,0.0397 -0.0931,0.0555 -0.26429,0.0832 -0.14407,0.0233 -0.22294,0.0514 -0.27043,0.0962 -0.0468,0.0442 -0.11374,0.0619 -0.31597,0.0837 -0.25204,0.0271 -0.32673,0.0449 -0.38568,0.0917 -0.0647,0.0514 -0.0838,0.055 -0.38862,0.0736 -0.33472,0.0204 -0.50316,0.0479 -0.58409,0.0953 -0.0997,0.0584 -0.28948,0.0699 -1.12991,0.0685 -0.56041,-0.001 -0.75472,-0.006 -0.8119,-0.0212 z m 1.87817,-1.00768 c 0.0541,-0.0125 0.1171,-0.0303 0.14,-0.0394 0.0823,-0.0327 0.15057,-0.0429 0.38763,-0.0576 0.28064,-0.0175 0.38415,-0.0428 0.43018,-0.10505 0.0397,-0.0536 0.0563,-0.0584 0.26126,-0.0755 0.1857,-0.0154 0.28888,-0.0453 0.34287,-0.0993 0.0272,-0.0272 0.0744,-0.0445 0.18327,-0.0672 0.15407,-0.0322 0.25882,-0.0756 0.27328,-0.11326 0.0132,-0.0345 0.0801,-0.0629 0.19425,-0.0826 0.0891,-0.0153 0.1116,-0.0259 0.15804,-0.0743 0.0654,-0.0682 0.0879,-0.0805 0.19145,-0.10482 0.0577,-0.0135 0.0978,-0.0356 0.14281,-0.0786 0.0344,-0.0329 0.0913,-0.0766 0.12629,-0.0972 0.035,-0.0206 0.0846,-0.0639 0.1103,-0.0963 0.0257,-0.0324 0.0647,-0.0632 0.0867,-0.0685 0.0725,-0.0173 0.11824,-0.0484 0.1366,-0.0928 0.0135,-0.0322 0.0347,-0.0487 0.0811,-0.0625 0.0906,-0.0271 0.18232,-0.0844 0.20619,-0.12902 0.0114,-0.0212 0.0531,-0.0596 0.0928,-0.0853 0.0397,-0.0257 0.0856,-0.0694 0.10191,-0.0972 0.0164,-0.0277 0.0541,-0.0648 0.0839,-0.0823 0.0298,-0.0176 0.0709,-0.0585 0.0913,-0.0909 0.0204,-0.0324 0.0611,-0.073 0.0902,-0.0902 0.0292,-0.0172 0.0694,-0.0573 0.0895,-0.0891 0.0201,-0.0318 0.0638,-0.0751 0.0971,-0.0961 0.0333,-0.021 0.0668,-0.0532 0.0744,-0.0715 0.0188,-0.0456 0.0614,-0.0942 0.0995,-0.11363 0.0175,-0.009 0.0598,-0.0626 0.094,-0.11928 0.0342,-0.0567 0.0828,-0.12273 0.10787,-0.14676 0.0271,-0.026 0.0549,-0.0756 0.0685,-0.1225 0.0175,-0.0596 0.0375,-0.0904 0.0827,-0.12616 0.0329,-0.0261 0.0726,-0.072 0.0881,-0.10204 0.0156,-0.0301 0.0591,-0.0869 0.0966,-0.12629 0.0633,-0.0663 0.0761,-0.0936 0.10559,-0.22476 0.005,-0.0224 0.039,-0.0702 0.0755,-0.10615 0.0475,-0.0468 0.0692,-0.0822 0.0765,-0.1246 0.0204,-0.1189 0.0392,-0.17251 0.0708,-0.20201 0.0177,-0.0166 0.0364,-0.0301 0.0413,-0.0301 0.0214,0 0.0593,-0.0904 0.0755,-0.18009 0.0206,-0.11328 0.0296,-0.13275 0.0888,-0.19206 0.0473,-0.0473 0.0585,-0.082 0.0986,-0.30712 0.0188,-0.10543 0.0344,-0.15306 0.0568,-0.1729 0.0498,-0.0442 0.0835,-0.13832 0.10115,-0.28298 0.0276,-0.22587 0.0291,-0.23096 0.0831,-0.28005 0.0576,-0.0524 0.0829,-0.13845 0.0827,-0.28075 -1.4e-4,-0.0796 0.0122,-0.24753 0.0446,-0.60706 0.01,-0.10886 0.0209,-0.15616 0.0443,-0.18794 0.0498,-0.0678 0.0616,-0.17976 0.0616,-0.58373 0,-0.39695 -0.0114,-0.50965 -0.0577,-0.57631 -0.043,-0.0618 -0.0473,-0.0922 -0.0619,-0.43856 -0.0193,-0.45834 -0.0466,-0.60673 -0.11909,-0.6455 -0.042,-0.0225 -0.0583,-0.0811 -0.0775,-0.27894 -0.0185,-0.19002 -0.0333,-0.23552 -0.0945,-0.2884 -0.0257,-0.0223 -0.0435,-0.0603 -0.0558,-0.12028 -0.0268,-0.12977 -0.0576,-0.19637 -0.11187,-0.24219 -0.038,-0.0321 -0.0541,-0.0634 -0.0741,-0.14454 -0.0319,-0.12936 -0.0573,-0.17904 -0.1111,-0.21738 -0.0337,-0.024 -0.0477,-0.0528 -0.0687,-0.14197 -0.0254,-0.10812 -0.0799,-0.19111 -0.12533,-0.19111 -0.009,0 -0.0338,-0.0371 -0.0552,-0.0824 -0.0299,-0.0631 -0.0523,-0.0887 -0.0953,-0.10901 -0.0437,-0.0206 -0.0618,-0.0417 -0.081,-0.0942 -0.0159,-0.0436 -0.0428,-0.08 -0.0756,-0.10242 -0.0298,-0.0203 -0.064,-0.0643 -0.0825,-0.10588 -0.0175,-0.0391 -0.067,-0.10805 -0.11033,-0.15318 -0.0433,-0.0451 -0.0957,-0.10705 -0.11642,-0.13758 -0.0214,-0.0317 -0.0829,-0.0828 -0.143,-0.11915 -0.0579,-0.035 -0.11896,-0.0821 -0.1356,-0.1046 -0.0267,-0.0362 -0.0843,-0.0691 -0.16547,-0.0947 -0.0143,-0.004 -0.0359,-0.0321 -0.0481,-0.0614 -0.0138,-0.0328 -0.0384,-0.0596 -0.0644,-0.0698 -0.0955,-0.0375 -0.13398,-0.0616 -0.14779,-0.0928 -0.0222,-0.0499 -0.0997,-0.0945 -0.20207,-0.11621 -0.0824,-0.0175 -0.0943,-0.0248 -0.11276,-0.069 -0.0206,-0.0496 -0.0698,-0.0837 -0.14745,-0.10231 -0.023,-0.006 -0.0695,-0.037 -0.10346,-0.0699 -0.0579,-0.0562 -0.11022,-0.0789 -0.25661,-0.1111 -0.0225,-0.005 -0.0666,-0.0349 -0.0978,-0.0665 -0.0552,-0.0557 -0.0623,-0.0582 -0.2372,-0.0838 -0.22535,-0.033 -0.28445,-0.0478 -0.30914,-0.0776 -0.031,-0.0373 -0.12015,-0.0772 -0.21746,-0.0972 -0.0596,-0.0122 -0.28194,-0.0196 -0.66109,-0.0219 -0.6709,-0.004 -0.76986,-0.0112 -0.86934,-0.062 -0.14859,-0.076 -0.28366,-0.0775 -0.37666,-0.004 -0.0322,0.0253 -0.09,0.0337 -0.40312,0.0586 -0.47223,0.0375 -0.51723,0.0463 -0.58079,0.11326 -0.0274,0.0288 -0.0516,0.0525 -0.0537,0.0525 -0.003,0 -0.0805,0.0138 -0.17397,0.0306 -0.181,0.0326 -0.21198,0.0437 -0.27125,0.0972 -0.0366,0.0331 -0.0757,0.0486 -0.20695,0.0825 -0.0381,0.01 -0.0941,0.0431 -0.13785,0.082 -0.0408,0.0363 -0.11285,0.08 -0.1614,0.0981 -0.0482,0.0179 -0.108,0.052 -0.13279,0.0756 -0.0249,0.0236 -0.0756,0.0548 -0.11277,0.0694 -0.0856,0.0334 -0.18042,0.092 -0.18042,0.11147 0,0.0206 -0.0606,0.0714 -0.1216,0.10204 -0.0279,0.014 -0.0664,0.0491 -0.0856,0.0781 -0.0193,0.0289 -0.0464,0.0571 -0.0605,0.0625 -0.014,0.005 -0.0483,0.0184 -0.0762,0.0289 -0.0279,0.0104 -0.0632,0.0398 -0.0784,0.0653 -0.0153,0.0255 -0.0534,0.0598 -0.0847,0.0764 -0.0358,0.0189 -0.068,0.0523 -0.0869,0.0903 -0.0201,0.0404 -0.0498,0.0701 -0.0902,0.0902 -0.0404,0.0201 -0.0701,0.0498 -0.0902,0.0902 -0.0201,0.0404 -0.0498,0.0701 -0.0902,0.0902 -0.0386,0.0192 -0.071,0.0507 -0.0903,0.0877 -0.0185,0.0359 -0.0486,0.0655 -0.079,0.0783 -0.072,0.0301 -0.43286,0.39915 -0.45453,0.4648 -0.01,0.0293 -0.0275,0.0532 -0.0397,0.0532 -0.0348,0 -0.0942,0.0738 -0.10477,0.13006 -0.007,0.0358 -0.0294,0.0675 -0.0758,0.10543 -0.0364,0.0298 -0.0771,0.0773 -0.0905,0.10553 -0.0135,0.0282 -0.0476,0.073 -0.0761,0.0995 -0.0621,0.0578 -0.1178,0.14997 -0.13216,0.21869 -0.007,0.0345 -0.0257,0.0592 -0.0589,0.0788 -0.0308,0.0181 -0.0608,0.0561 -0.0825,0.10411 -0.0188,0.0417 -0.0576,0.0934 -0.0864,0.11543 -0.0589,0.0449 -0.10268,0.12116 -0.11871,0.20663 -0.007,0.0387 -0.0319,0.079 -0.075,0.12279 -0.055,0.0558 -0.068,0.0819 -0.0912,0.18219 -0.0233,0.10072 -0.0357,0.12547 -0.0892,0.17721 -0.054,0.0523 -0.0657,0.0758 -0.0894,0.18043 -0.022,0.097 -0.038,0.13211 -0.083,0.18152 -0.0393,0.0431 -0.0611,0.0854 -0.0737,0.14284 -0.0385,0.17508 -0.0499,0.20427 -0.0985,0.25177 -0.0552,0.054 -0.0758,0.11815 -0.0903,0.28087 -0.0135,0.15311 -0.0376,0.2341 -0.0857,0.28995 -0.0236,0.0272 -0.0427,0.0542 -0.0429,0.0601 -1.6e-4,0.006 -0.0103,0.0649 -0.0228,0.13103 -0.0217,0.11713 -0.0599,0.80392 -0.0571,1.02991 0.003,0.22041 0.0329,0.70083 0.0509,0.80968 0.0151,0.0917 0.0266,0.11887 0.0671,0.15941 0.0617,0.0617 0.0641,0.0701 0.0811,0.27901 0.0241,0.29647 0.0429,0.37596 0.10152,0.43149 0.0391,0.0371 0.0567,0.072 0.0758,0.15035 0.0249,0.10214 0.0822,0.21484 0.1094,0.21484 0.0243,0 0.0553,0.0771 0.0756,0.18793 0.0164,0.0896 0.0281,0.11401 0.0781,0.1643 0.0738,0.0742 0.0807,0.0879 0.0934,0.18762 0.0127,0.0999 0.0417,0.15837 0.0955,0.19276 0.0573,0.0367 0.0745,0.0627 0.0851,0.1286 0.006,0.037 0.0296,0.0796 0.0671,0.12047 0.0319,0.0348 0.0794,0.10595 0.10565,0.15813 0.0325,0.0648 0.0642,0.1046 0.0996,0.12553 0.0415,0.0245 0.0568,0.0472 0.0758,0.11258 0.0241,0.0824 0.13671,0.22843 0.23715,0.30714 0.0235,0.0185 0.0627,0.0614 0.0869,0.0952 0.0488,0.0682 0.18592,0.22139 0.31527,0.35215 0.0464,0.0469 0.0891,0.10046 0.095,0.11904 0.006,0.0186 0.0405,0.0513 0.077,0.0727 0.0365,0.0214 0.0881,0.0663 0.11459,0.0998 0.0433,0.0546 0.19812,0.14705 0.24649,0.14708 0.009,1e-5 0.0268,0.0226 0.0399,0.0502 0.0145,0.0307 0.042,0.057 0.0704,0.0677 0.0257,0.01 0.0671,0.0252 0.0923,0.0346 0.0251,0.009 0.055,0.035 0.0663,0.0567 0.0114,0.0217 0.0536,0.061 0.094,0.0872 0.0404,0.0262 0.0831,0.0655 0.0948,0.0874 0.0262,0.0489 0.0792,0.0774 0.18319,0.0983 0.11721,0.0235 0.15658,0.042 0.17481,0.082 0.0217,0.0476 0.0809,0.0764 0.21413,0.10415 0.0871,0.0182 0.12123,0.0336 0.16351,0.074 0.0702,0.067 0.0958,0.079 0.22683,0.10631 0.0754,0.0157 0.12256,0.0349 0.14944,0.0606 0.0659,0.0632 0.24111,0.10008 0.53422,0.1126 0.25662,0.011 0.31493,0.022 0.35203,0.0667 0.014,0.0169 0.0476,0.0247 0.11213,0.0259 0.0507,0.001 0.11242,0.007 0.13724,0.0132 0.0822,0.0209 0.37671,0.0162 0.4799,-0.008 z"
         id="path16618" />
    </g>
  </g>
</svg>
