<?xml version="1.0" standalone="no"?>
<!DOCTYPE svg PUBLIC "-//W3C//DTD SVG 20010904//EN"
 "http://www.w3.org/TR/2001/REC-SVG-20010904/DTD/svg10.dtd">
<svg version="1.0" xmlns="http://www.w3.org/2000/svg"
 width="512.000000pt" height="512.000000pt" viewBox="0 0 512.000000 512.000000"
 preserveAspectRatio="xMidYMid meet">

<g transform="translate(0.000000,512.000000) scale(0.100000,-0.100000)"
fill="#000000" stroke="none">
<path d="M722 4035 c398 -596 725 -1084 728 -1084 5 0 842 1253 848 1269 2 5
-131 209 -294 454 l-297 446 -854 0 -853 0 722 -1085z"/>
<path d="M3116 4674 c-163 -245 -296 -449 -294 -454 6 -16 843 -1269 848
-1269 3 0 330 488 728 1084 l722 1085 -853 0 -854 0 -297 -446z"/>
<path d="M2130 3195 l-423 -635 423 -635 c233 -349 426 -635 430 -635 4 0 197
286 430 635 l423 635 -423 635 c-233 349 -426 635 -430 635 -4 0 -197 -286
-430 -635z"/>
<path d="M722 1085 l-722 -1085 853 0 854 0 297 446 c163 245 296 449 294 454
-6 16 -843 1269 -848 1269 -3 0 -330 -488 -728 -1084z"/>
<path d="M3245 1539 c-231 -347 -421 -635 -423 -639 -2 -5 131 -209 294 -454
l297 -446 854 0 853 0 -722 1085 c-398 596 -725 1084 -728 1084 -3 0 -194
-283 -425 -630z"/>
</g>
</svg>
